<svg fill="none" height="120" viewBox="0 0 120 120" width="120" xmlns="http://www.w3.org/2000/svg"><path d="m75.7 107.4-15.7-9.9-15.7 9.9v-66.3h31.4z" fill="#285fff"/><path d="m60 77c17.7836 0 32.2-14.4164 32.2-32.2s-14.4164-32.2-32.2-32.2-32.2 14.4164-32.2 32.2 14.4164 32.2 32.2 32.2z" fill="#ffc54d"/><path d="m60 70.1c13.9728 0 25.3-11.3272 25.3-25.3s-11.3272-25.3-25.3-25.3-25.3 11.3272-25.3 25.3 11.3272 25.3 25.3 25.3z" fill="#e8b04b"/><path d="m61.2 29.7 4.2 8.4c.2.4.6.7 1 .8l9.3 1.4c1.1.2 1.6 1.5.8 2.3l-6.7 6.6c-.3.3-.5.8-.4 1.2l1.6 9.3c.2 1.1-1 2-2 1.4l-8.3-4.4c-.4-.2-.9-.2-1.3 0l-8.4 4.4c-1 .5-2.2-.3-2-1.4l1.6-9.3c.1-.4-.1-.9-.4-1.2l-6.7-6.6c-.8-.8-.4-2.2.8-2.3l9.3-1.4c.4-.1.8-.3 1-.8l4.2-8.4c.5-1 1.9-1 2.4 0z" fill="#fff"/></svg>