<svg enable-background="new 0 0 512 512" viewBox="0 0 512 512" xmlns="http://www.w3.org/2000/svg"><circle cx="254.874" cy="257.739" fill="#e5e4df" r="228.521"/><path d="m384.604 257.739c0 71.648-58.082 129.73-129.73 129.73s-128.388-58.095-129.73-129.73c-1.332-71.103 53.52-127.864 129.73-129.73 71.626-1.755 129.73 58.082 129.73 129.73z" fill="#e5e4df"/><g fill="#ff473e"><path d="m254.874 505.874c-136.822 0-248.135-111.313-248.135-248.135 0-136.824 111.313-248.137 248.135-248.137s248.135 111.313 248.135 248.137c0 136.822-111.313 248.135-248.135 248.135zm0-449.353c-110.952 0-201.217 90.266-201.217 201.218s90.265 201.217 201.217 201.217 201.216-90.265 201.216-201.217-90.265-201.218-201.216-201.218z"/><path d="m254.874 407.084c-82.179 0-147.776-65.439-149.341-148.978-1.559-83.231 62.438-147.59 148.86-149.706 82.218-2.061 149.827 65.771 149.827 149.339 0 82.349-66.996 149.345-149.346 149.345zm2.758-248.349c-.771 0-1.552.011-2.328.029-57.695 1.412-100.429 43.819-99.401 98.644 1.041 55.681 44.516 99.298 98.969 99.298 54.573 0 98.969-44.397 98.969-98.968.001-54.591-43.159-99.003-96.209-99.003z"/><circle cx="254.874" cy="257.739" r="40.605"/></g><path d="m290.716 231.117-10.94-10.94-30.624 30.623.006.006c-.043.041-.089.076-.131.118-3.021 3.021-3.021 7.919 0 10.94s7.919 3.021 10.94 0c.042-.042.077-.088.118-.131l.006.006z" fill="#2b3b47"/><path d="m437.626 73.763c37.978-82.369-34.466-112.946-46.703 24.855l-106.175 94.587c-.732.578-1.446 1.19-2.122 1.865-.041.041-.075.087-.117.129l-.081.072.008.008c-9.103 9.319-9.047 24.246.189 33.482 9.237 9.237 24.164 9.292 33.483.189l.008.008.071-.08c.042-.041.088-.075.129-.117.676-.676 1.288-1.39 1.866-2.122l94.587-106.175c137.803-12.235 107.226-84.679 24.857-46.701z" fill="#0074a8"/></svg>